<mxfile host="app.diagrams.net" modified="2023-05-12T07:26:07.296Z" agent="Mozilla/5.0 (Macintosh; Intel Mac OS X 10_15_7) AppleWebKit/537.36 (KHTML, like Gecko) Chrome/113.0.0.0 Safari/537.36" etag="cYg90pAzLLWY2B-jwvxr" version="21.2.9" type="github">
  <diagram id="C5RBs43oDa-KdzZeNtuy" name="Page-1">
    <mxGraphModel dx="869" dy="413" grid="1" gridSize="10" guides="1" tooltips="1" connect="1" arrows="1" fold="1" page="1" pageScale="1" pageWidth="827" pageHeight="1169" math="0" shadow="0">
      <root>
        <mxCell id="WIyWlLk6GJQsqaUBKTNV-0" />
        <mxCell id="WIyWlLk6GJQsqaUBKTNV-1" parent="WIyWlLk6GJQsqaUBKTNV-0" />
        <mxCell id="WIyWlLk6GJQsqaUBKTNV-3" value="" style="rounded=1;whiteSpace=wrap;html=1;fontSize=12;glass=0;strokeWidth=1;shadow=0;fillColor=#dae8fc;strokeColor=#6c8ebf;" parent="WIyWlLk6GJQsqaUBKTNV-1" vertex="1">
          <mxGeometry x="260" y="330" width="130" height="150" as="geometry" />
        </mxCell>
        <mxCell id="WIyWlLk6GJQsqaUBKTNV-12" value="" style="rounded=1;whiteSpace=wrap;html=1;fontSize=12;glass=0;strokeWidth=1;shadow=0;fillColor=#d5e8d4;strokeColor=#82b366;" parent="WIyWlLk6GJQsqaUBKTNV-1" vertex="1">
          <mxGeometry x="260" y="489" width="400" height="50" as="geometry" />
        </mxCell>
        <mxCell id="WIyWlLk6GJQsqaUBKTNV-7" value="直播" style="rounded=1;whiteSpace=wrap;html=1;fontSize=12;glass=0;strokeWidth=1;shadow=0;" parent="WIyWlLk6GJQsqaUBKTNV-1" vertex="1">
          <mxGeometry x="274" y="504" width="110" height="20" as="geometry" />
        </mxCell>
        <mxCell id="WIyWlLk6GJQsqaUBKTNV-11" value="播放器" style="rounded=1;whiteSpace=wrap;html=1;fontSize=12;glass=0;strokeWidth=1;shadow=0;fillColor=#f5f5f5;strokeColor=#666666;fontColor=#333333;" parent="WIyWlLk6GJQsqaUBKTNV-1" vertex="1">
          <mxGeometry x="260" y="555" width="400" height="30" as="geometry" />
        </mxCell>
        <mxCell id="SQpQBbLgmsMVuZRZZ3qk-0" value="回放" style="rounded=1;whiteSpace=wrap;html=1;fontSize=12;glass=0;strokeWidth=1;shadow=0;" parent="WIyWlLk6GJQsqaUBKTNV-1" vertex="1">
          <mxGeometry x="522" y="504" width="110" height="20" as="geometry" />
        </mxCell>
        <mxCell id="SQpQBbLgmsMVuZRZZ3qk-1" value="播放器复用" style="rounded=1;whiteSpace=wrap;html=1;fontSize=12;glass=0;strokeWidth=1;shadow=0;" parent="WIyWlLk6GJQsqaUBKTNV-1" vertex="1">
          <mxGeometry x="270" y="390" width="110" height="20" as="geometry" />
        </mxCell>
        <mxCell id="SQpQBbLgmsMVuZRZZ3qk-2" value="" style="rounded=1;whiteSpace=wrap;html=1;fontSize=12;glass=0;strokeWidth=1;shadow=0;fillColor=#dae8fc;strokeColor=#6c8ebf;" parent="WIyWlLk6GJQsqaUBKTNV-1" vertex="1">
          <mxGeometry x="414" y="330" width="116" height="150" as="geometry" />
        </mxCell>
        <mxCell id="SQpQBbLgmsMVuZRZZ3qk-4" value="跳转" style="text;strokeColor=none;align=center;fillColor=none;html=1;verticalAlign=middle;whiteSpace=wrap;rounded=0;" parent="WIyWlLk6GJQsqaUBKTNV-1" vertex="1">
          <mxGeometry x="299" y="343" width="60" height="30" as="geometry" />
        </mxCell>
        <mxCell id="SQpQBbLgmsMVuZRZZ3qk-5" value="转场动画" style="rounded=1;whiteSpace=wrap;html=1;fontSize=12;glass=0;strokeWidth=1;shadow=0;" parent="WIyWlLk6GJQsqaUBKTNV-1" vertex="1">
          <mxGeometry x="270" y="430" width="110" height="20" as="geometry" />
        </mxCell>
        <mxCell id="SQpQBbLgmsMVuZRZZ3qk-7" value="自动裁剪" style="text;strokeColor=none;align=center;fillColor=none;html=1;verticalAlign=middle;whiteSpace=wrap;rounded=0;" parent="WIyWlLk6GJQsqaUBKTNV-1" vertex="1">
          <mxGeometry x="442" y="343" width="60" height="30" as="geometry" />
        </mxCell>
        <mxCell id="SQpQBbLgmsMVuZRZZ3qk-8" value="竖屏" style="rounded=1;whiteSpace=wrap;html=1;fontSize=12;glass=0;strokeWidth=1;shadow=0;" parent="WIyWlLk6GJQsqaUBKTNV-1" vertex="1">
          <mxGeometry x="422" y="390" width="100" height="20" as="geometry" />
        </mxCell>
        <mxCell id="SQpQBbLgmsMVuZRZZ3qk-10" value="横屏" style="rounded=1;whiteSpace=wrap;html=1;fontSize=12;glass=0;strokeWidth=1;shadow=0;" parent="WIyWlLk6GJQsqaUBKTNV-1" vertex="1">
          <mxGeometry x="422" y="420" width="100" height="20" as="geometry" />
        </mxCell>
        <mxCell id="SQpQBbLgmsMVuZRZZ3qk-11" value="连麦" style="rounded=1;whiteSpace=wrap;html=1;fontSize=12;glass=0;strokeWidth=1;shadow=0;" parent="WIyWlLk6GJQsqaUBKTNV-1" vertex="1">
          <mxGeometry x="422" y="450" width="100" height="20" as="geometry" />
        </mxCell>
        <mxCell id="SQpQBbLgmsMVuZRZZ3qk-13" value="" style="rounded=1;whiteSpace=wrap;html=1;fontSize=12;glass=0;strokeWidth=1;shadow=0;fillColor=#dae8fc;strokeColor=#6c8ebf;" parent="WIyWlLk6GJQsqaUBKTNV-1" vertex="1">
          <mxGeometry x="544" y="330" width="116" height="150" as="geometry" />
        </mxCell>
        <mxCell id="SQpQBbLgmsMVuZRZZ3qk-14" value="全屏模式" style="text;strokeColor=none;align=center;fillColor=none;html=1;verticalAlign=middle;whiteSpace=wrap;rounded=0;" parent="WIyWlLk6GJQsqaUBKTNV-1" vertex="1">
          <mxGeometry x="572" y="343" width="60" height="30" as="geometry" />
        </mxCell>
        <mxCell id="SQpQBbLgmsMVuZRZZ3qk-15" value="适配横屏" style="rounded=1;whiteSpace=wrap;html=1;fontSize=12;glass=0;strokeWidth=1;shadow=0;" parent="WIyWlLk6GJQsqaUBKTNV-1" vertex="1">
          <mxGeometry x="555.5" y="390" width="93" height="20" as="geometry" />
        </mxCell>
        <mxCell id="SQpQBbLgmsMVuZRZZ3qk-16" value="适配连麦" style="rounded=1;whiteSpace=wrap;html=1;fontSize=12;glass=0;strokeWidth=1;shadow=0;" parent="WIyWlLk6GJQsqaUBKTNV-1" vertex="1">
          <mxGeometry x="555.5" y="420" width="93" height="20" as="geometry" />
        </mxCell>
        <mxCell id="SQpQBbLgmsMVuZRZZ3qk-3" value="无缝跳转" style="rounded=1;whiteSpace=wrap;html=1;fontSize=12;glass=0;strokeWidth=1;shadow=0;" parent="WIyWlLk6GJQsqaUBKTNV-1" vertex="1">
          <mxGeometry x="556.5" y="450" width="92" height="20" as="geometry" />
        </mxCell>
        <mxCell id="SQpQBbLgmsMVuZRZZ3qk-18" value="底层" style="rounded=1;whiteSpace=wrap;html=1;fontSize=12;glass=0;strokeWidth=1;shadow=0;fillColor=#f5f5f5;strokeColor=#666666;fontColor=#333333;" parent="WIyWlLk6GJQsqaUBKTNV-1" vertex="1">
          <mxGeometry x="210" y="555" width="30" height="30" as="geometry" />
        </mxCell>
        <mxCell id="SQpQBbLgmsMVuZRZZ3qk-19" value="播放业务层" style="rounded=1;whiteSpace=wrap;html=1;fontSize=12;glass=0;strokeWidth=1;shadow=0;fillColor=#d5e8d4;strokeColor=#82b366;" parent="WIyWlLk6GJQsqaUBKTNV-1" vertex="1">
          <mxGeometry x="210" y="489" width="30" height="51" as="geometry" />
        </mxCell>
        <mxCell id="SQpQBbLgmsMVuZRZZ3qk-20" value="视图业务层" style="rounded=1;whiteSpace=wrap;html=1;fontSize=12;glass=0;strokeWidth=1;shadow=0;fillColor=#dae8fc;strokeColor=#6c8ebf;" parent="WIyWlLk6GJQsqaUBKTNV-1" vertex="1">
          <mxGeometry x="210" y="330" width="30" height="150" as="geometry" />
        </mxCell>
        <mxCell id="SQpQBbLgmsMVuZRZZ3qk-21" value="播放控制层" style="rounded=1;whiteSpace=wrap;html=1;fontSize=12;glass=0;strokeWidth=1;shadow=0;fillColor=#e1d5e7;strokeColor=#9673a6;" parent="WIyWlLk6GJQsqaUBKTNV-1" vertex="1">
          <mxGeometry x="210" y="240" width="30" height="80" as="geometry" />
        </mxCell>
        <mxCell id="SQpQBbLgmsMVuZRZZ3qk-22" value="" style="rounded=1;whiteSpace=wrap;html=1;fontSize=12;glass=0;strokeWidth=1;shadow=0;fillColor=#e1d5e7;strokeColor=#9673a6;" parent="WIyWlLk6GJQsqaUBKTNV-1" vertex="1">
          <mxGeometry x="260" y="240" width="400" height="80" as="geometry" />
        </mxCell>
        <mxCell id="SQpQBbLgmsMVuZRZZ3qk-25" value="降级模块" style="text;strokeColor=none;align=center;fillColor=none;html=1;verticalAlign=middle;whiteSpace=wrap;rounded=0;" parent="WIyWlLk6GJQsqaUBKTNV-1" vertex="1">
          <mxGeometry x="422" y="246" width="60" height="20" as="geometry" />
        </mxCell>
        <mxCell id="SQpQBbLgmsMVuZRZZ3qk-26" value="降级封面图" style="rounded=1;whiteSpace=wrap;html=1;fontSize=12;glass=0;strokeWidth=1;shadow=0;" parent="WIyWlLk6GJQsqaUBKTNV-1" vertex="1">
          <mxGeometry x="362" y="270" width="90" height="30" as="geometry" />
        </mxCell>
        <mxCell id="SQpQBbLgmsMVuZRZZ3qk-27" value="仅wifi播放" style="rounded=1;whiteSpace=wrap;html=1;fontSize=12;glass=0;strokeWidth=1;shadow=0;" parent="WIyWlLk6GJQsqaUBKTNV-1" vertex="1">
          <mxGeometry x="459" y="270" width="90" height="30" as="geometry" />
        </mxCell>
        <mxCell id="SQpQBbLgmsMVuZRZZ3qk-29" value="wifi+4G播放" style="rounded=1;whiteSpace=wrap;html=1;fontSize=12;glass=0;strokeWidth=1;shadow=0;" parent="WIyWlLk6GJQsqaUBKTNV-1" vertex="1">
          <mxGeometry x="559.5" y="270" width="90" height="30" as="geometry" />
        </mxCell>
        <mxCell id="SQpQBbLgmsMVuZRZZ3qk-30" value="透传无降级" style="rounded=1;whiteSpace=wrap;html=1;fontSize=12;glass=0;strokeWidth=1;shadow=0;" parent="WIyWlLk6GJQsqaUBKTNV-1" vertex="1">
          <mxGeometry x="266" y="270" width="90" height="30" as="geometry" />
        </mxCell>
        <mxCell id="SQpQBbLgmsMVuZRZZ3qk-31" value="业务调用方" style="rounded=1;whiteSpace=wrap;html=1;fontSize=12;glass=0;strokeWidth=1;shadow=0;fillColor=#ffe6cc;strokeColor=#d79b00;" parent="WIyWlLk6GJQsqaUBKTNV-1" vertex="1">
          <mxGeometry x="210" y="200" width="450" height="30" as="geometry" />
        </mxCell>
        <mxCell id="SQpQBbLgmsMVuZRZZ3qk-38" value="" style="endArrow=classic;html=1;rounded=0;exitX=0.5;exitY=0;exitDx=0;exitDy=0;entryX=0.5;entryY=1;entryDx=0;entryDy=0;endSize=2;" parent="WIyWlLk6GJQsqaUBKTNV-1" source="SQpQBbLgmsMVuZRZZ3qk-19" target="SQpQBbLgmsMVuZRZZ3qk-20" edge="1">
          <mxGeometry width="50" height="50" relative="1" as="geometry">
            <mxPoint x="300" y="500" as="sourcePoint" />
            <mxPoint x="350" y="450" as="targetPoint" />
          </mxGeometry>
        </mxCell>
        <mxCell id="SQpQBbLgmsMVuZRZZ3qk-44" value="" style="endArrow=classic;html=1;rounded=0;exitX=0.5;exitY=0;exitDx=0;exitDy=0;entryX=0.5;entryY=1;entryDx=0;entryDy=0;endSize=2;" parent="WIyWlLk6GJQsqaUBKTNV-1" source="SQpQBbLgmsMVuZRZZ3qk-18" target="SQpQBbLgmsMVuZRZZ3qk-19" edge="1">
          <mxGeometry width="50" height="50" relative="1" as="geometry">
            <mxPoint x="235" y="499" as="sourcePoint" />
            <mxPoint x="235" y="490" as="targetPoint" />
          </mxGeometry>
        </mxCell>
        <mxCell id="SQpQBbLgmsMVuZRZZ3qk-45" value="" style="endArrow=classic;html=1;rounded=0;entryX=0.5;entryY=1;entryDx=0;entryDy=0;endSize=2;" parent="WIyWlLk6GJQsqaUBKTNV-1" target="SQpQBbLgmsMVuZRZZ3qk-21" edge="1">
          <mxGeometry width="50" height="50" relative="1" as="geometry">
            <mxPoint x="225" y="330" as="sourcePoint" />
            <mxPoint x="235" y="490" as="targetPoint" />
          </mxGeometry>
        </mxCell>
        <mxCell id="SQpQBbLgmsMVuZRZZ3qk-46" value="" style="endArrow=classic;html=1;rounded=0;entryX=0.034;entryY=0.994;entryDx=0;entryDy=0;endSize=2;entryPerimeter=0;exitX=0.5;exitY=0;exitDx=0;exitDy=0;" parent="WIyWlLk6GJQsqaUBKTNV-1" source="SQpQBbLgmsMVuZRZZ3qk-21" target="SQpQBbLgmsMVuZRZZ3qk-31" edge="1">
          <mxGeometry width="50" height="50" relative="1" as="geometry">
            <mxPoint x="240" y="340" as="sourcePoint" />
            <mxPoint x="245" y="500" as="targetPoint" />
            <Array as="points">
              <mxPoint x="225" y="230" />
            </Array>
          </mxGeometry>
        </mxCell>
      </root>
    </mxGraphModel>
  </diagram>
</mxfile>
